<svg width="64" height="64" viewBox="0 0 64 64" fill="none" xmlns="http://www.w3.org/2000/svg">
<rect width="64" height="64" rx="32" fill="#A7A9BE"/>
<circle cx="32" cy="32" r="22" fill="#0F0E17"/>
<path d="M43.5431 23C43.7031 25.8 43.7831 28.76 43.7831 31.88C43.7831 34.9733 43.6498 38.68 43.3831 43H39.5431C34.3698 40.2267 29.6231 36.4533 25.3031 31.68C25.5165 33.4667 25.6231 35.3067 25.6231 37.2C25.6231 39.0667 25.5565 41 25.4231 43H20.7431C21.2765 39.72 21.5431 36.6933 21.5431 33.92C21.5431 31.12 21.4098 28.9067 21.1431 27.28C20.0765 25.68 19.2365 24.2533 18.6231 23H29.9831C31.1031 24.92 32.6231 26.9067 34.5431 28.96C36.4898 30.9867 38.3431 32.5733 40.1031 33.72C40.1031 29.8267 39.6631 26.2533 38.7831 23H43.5431Z" fill="#FFFFFE"/>
</svg>
