<svg width="20" height="20" viewBox="0 0 20 20" fill="none" xmlns="http://www.w3.org/2000/svg">
<path id="Vector" fill-rule="evenodd" clip-rule="evenodd" d="M8 2.85714C6.93913 2.85714 5.92172 3.15816 5.17157 3.69398C4.42143 4.2298 4 4.95652 4 5.71429C4 6.47205 4.42143 7.19877 5.17157 7.73459C5.92172 8.27041 6.93913 8.57143 8 8.57143H12C14.1217 8.57143 16.1566 9.17347 17.6569 10.2451C19.1571 11.3167 20 12.7702 20 14.2857C20 15.8012 19.1571 17.2547 17.6569 18.3263C16.1566 19.398 14.1217 20 12 20H8C6.34541 19.9999 4.73154 19.6334 3.38053 18.9511C2.02953 18.2688 1.00781 17.3042 0.456 16.19C0.290496 15.8348 0.326811 15.4474 0.55713 15.1111C0.787449 14.7748 1.19337 14.5166 1.68755 14.3919C2.18174 14.2672 2.7247 14.286 3.19961 14.4444C3.67453 14.6027 4.04345 14.8879 4.227 15.2386C4.50319 15.7956 5.01429 16.2778 5.68996 16.6189C6.36564 16.9599 7.17267 17.1429 8 17.1429H12C13.0609 17.1429 14.0783 16.8418 14.8284 16.306C15.5786 15.7702 16 15.0435 16 14.2857C16 13.528 15.5786 12.8012 14.8284 12.2654C14.0783 11.7296 13.0609 11.4286 12 11.4286H8C5.87827 11.4286 3.84344 10.8265 2.34315 9.7549C0.842854 8.68326 0 7.22981 0 5.71429C0 4.19876 0.842854 2.74531 2.34315 1.67368C3.84344 0.602039 5.87827 0 8 0H12C13.6546 0.000122459 15.2685 0.366556 16.6195 1.04886C17.9705 1.73117 18.9922 2.69581 19.544 3.81C19.7095 4.16521 19.6732 4.55263 19.4429 4.8889C19.2126 5.22518 18.8066 5.48344 18.3124 5.60813C17.8183 5.73281 17.2753 5.71395 16.8004 5.55561C16.3255 5.39726 15.9566 5.11208 15.773 4.76143C15.4968 4.20438 14.9857 3.72216 14.31 3.38114C13.6344 3.04012 12.8273 2.85706 12 2.85714H8Z" fill="#FF8906"/>
</svg>
