<svg width="16" height="16" viewBox="0 0 16 16" fill="none" xmlns="http://www.w3.org/2000/svg">
<g clip-path="url(#clip0_69_46)">
<path d="M8.34667 0.128035C8.25006 0.0454061 8.12712 0 8 0C7.87288 0 7.74994 0.0454061 7.65333 0.128035L0 6.68803V14.4C0 14.8244 0.168571 15.2313 0.468629 15.5314C0.768687 15.8315 1.17565 16 1.6 16H5.86667C6.00812 16 6.14377 15.9438 6.24379 15.8438C6.34381 15.7438 6.4 15.6081 6.4 15.4667V12.2667C6.4 11.8424 6.56857 11.4354 6.86863 11.1353C7.16869 10.8353 7.57565 10.6667 8 10.6667C8.42435 10.6667 8.83131 10.8353 9.13137 11.1353C9.43143 11.4354 9.6 11.8424 9.6 12.2667V15.4667C9.6 15.6081 9.65619 15.7438 9.75621 15.8438C9.85623 15.9438 9.99189 16 10.1333 16H14.4C14.8243 16 15.2313 15.8315 15.5314 15.5314C15.8314 15.2313 16 14.8244 16 14.4V6.68803L8.34667 0.128035Z" fill="#FFFFFE"/>
</g>
<defs>
<clipPath id="clip0_69_46">
<rect width="16" height="16" fill="white"/>
</clipPath>
</defs>
</svg>
