<svg width="20" height="20" viewBox="0 0 20 20" fill="none" xmlns="http://www.w3.org/2000/svg">
<g id="system-uicons:episodes" opacity="0.2">
<g id="Group">
<path id="Vector" fill-rule="evenodd" clip-rule="evenodd" d="M13.8095 15.7143V10C13.8095 9.49483 13.6088 9.01035 13.2516 8.65314C12.8944 8.29593 12.4099 8.09525 11.9047 8.09525H3.33332C2.82815 8.09525 2.34366 8.29593 1.98645 8.65314C1.62924 9.01035 1.42856 9.49483 1.42856 10V15.7143C1.42856 16.2195 1.62924 16.704 1.98645 17.0612C2.34366 17.4184 2.82815 17.6191 3.33332 17.6191H11.9047C12.4099 17.6191 12.8944 17.4184 13.2516 17.0612C13.6088 16.704 13.8095 16.2195 13.8095 15.7143Z" stroke="#FF8906" stroke-linecap="round" stroke-linejoin="round"/>
<path id="Vector_2" d="M15.7143 15.7143V9.05239C15.7143 8.29463 15.4133 7.56791 14.8774 7.03209C14.3416 6.49627 13.6149 6.19525 12.8571 6.19525H12.8524L4.28571 6.21049" stroke="#FF8906" stroke-linecap="round" stroke-linejoin="round"/>
<path id="Vector_3" d="M17.619 13.8095V8.10191C17.619 7.09156 17.2177 6.1226 16.5032 5.40817C15.7888 4.69375 14.8199 4.29239 13.8095 4.29239H13.8028L6.19046 4.30477" stroke="#FF8906" stroke-linecap="round" stroke-linejoin="round"/>
</g>
</g>
</svg>
