<svg width="137" height="22" viewBox="0 0 137 22" fill="none" xmlns="http://www.w3.org/2000/svg">
<path d="M3.92 20.88C1.54667 17.84 0.36 14.72 0.36 11.52C0.36 8.32 1.69333 5.61333 4.36 3.4C7.02667 1.18667 10.44 0.0799999 14.6 0.0799999C16.8133 0.0799999 19.0133 0.413333 21.2 1.08C23.12 3.50667 24.08 6.10667 24.08 8.88C24.08 12.3733 22.6533 15.4133 19.8 18C16.9467 20.5867 13.4933 21.88 9.44 21.88C7.70667 21.88 5.86667 21.5467 3.92 20.88ZM10 3.56C9.06667 5.16 8.6 7.04 8.6 9.2C8.6 11.36 9.06667 13.36 10 15.2C10.96 17.0133 12.2667 18.32 13.92 19.12C15.1733 17.52 15.8 15.6667 15.8 13.56C15.8 11.4533 15.28 9.49333 14.24 7.68C13.2267 5.86667 11.8133 4.49333 10 3.56ZM51.1681 1C51.3281 3.8 51.4081 6.76 51.4081 9.88C51.4081 12.9733 51.2748 16.68 51.0081 21H47.1681C41.9948 18.2267 37.2481 14.4533 32.9281 9.68C33.1415 11.4667 33.2481 13.3067 33.2481 15.2C33.2481 17.0667 33.1815 19 33.0481 21H28.3681C28.9015 17.72 29.1681 14.6933 29.1681 11.92C29.1681 9.12 29.0348 6.90667 28.7681 5.28C27.7015 3.68 26.8615 2.25333 26.2481 1H37.6081C38.7281 2.92 40.2481 4.90667 42.1681 6.96C44.1148 8.98667 45.9681 10.5733 47.7281 11.72C47.7281 7.82667 47.2881 4.25333 46.4081 1H51.1681ZM67.5619 1V2.08C67.5619 9.12 67.1219 15.4267 66.2419 21H56.6419C57.1485 18.5467 57.4019 15.72 57.4019 12.52C57.4019 9.29333 57.1885 5.45333 56.7619 1H67.5619ZM96.0613 2.84C96.0613 2.12 95.9546 1.50667 95.7413 1H107.141C108.101 3.56 108.808 6.69333 109.261 10.4C109.741 14.1067 109.995 17.64 110.021 21H100.781C100.595 16.2 99.8079 11.5733 98.4213 7.12C96.1013 11.6533 94.8479 16.28 94.6613 21H86.8213C86.1279 15.7733 84.7946 11.1333 82.8213 7.08C81.3813 10.4667 80.6613 13.6133 80.6613 16.52C80.6613 18.0933 80.8479 19.5867 81.2213 21H71.5013C71.3146 19.9067 71.2213 18.4667 71.2213 16.68C71.2213 14.8667 71.4879 13.0533 72.0213 11.24C73.9146 10.68 75.7279 9.76 77.4613 8.48C79.2213 7.2 80.5146 5.8 81.3413 4.28C80.6479 3.13333 79.9146 2.04 79.1413 1H91.7813C92.7946 3.74667 93.5546 6.73333 94.0613 9.96C95.3946 7.48 96.0613 5.10667 96.0613 2.84ZM128.452 9.04L132.212 9.28C132.585 9.28 132.865 9.26667 133.052 9.24L131.172 12.76H130.812C130.305 12.76 129.585 12.6267 128.652 12.36C127.718 12.0667 127.052 11.92 126.652 11.92C125.558 11.92 124.692 12.6267 124.052 14.04C123.945 15.3467 123.865 16.6533 123.812 17.96C125.198 18.2267 126.292 18.36 127.092 18.36H127.452C128.598 18.36 129.505 18.1067 130.172 17.6C130.865 17.0933 131.358 16.1867 131.652 14.88L136.452 15.08C136.052 17.3733 135.518 19.3467 134.852 21H115.212C114.678 17.4 114.412 13.8267 114.412 10.28C114.412 6.73333 114.598 3.64 114.972 1H136.412C135.932 3.88 135.505 5.90667 135.132 7.08C133.558 7.16 132.118 7.21333 130.812 7.24C131.025 6.62667 131.132 6.05333 131.132 5.52C131.132 4.24 130.172 3.6 128.252 3.6C127.532 3.6 126.732 3.68 125.852 3.84C125.265 6.37333 124.812 8.6 124.492 10.52C125.558 9.53333 126.878 9.04 128.452 9.04Z" fill="#FFFFFE"/>
</svg>
